<svg xmlns="http://www.w3.org/2000/svg" viewBox="0 0 178.21 122.56"><defs><style>.cls-1{fill:#313142;}</style></defs><title>Asset 2</title><g id="Layer_2" data-name="Layer 2"><g id="Capa_1" data-name="Capa 1"><path class="cls-1" d="M155.48,80.27c-2.85-.58-3.8-4.71-3.73-8.08.08-3.9,1.46-6.35,3.82-6.75a20.72,20.72,0,0,1,6.09,0,22.41,22.41,0,0,0-1.91-5.39c-2.68-4.93-7.16-4.31-12.31-10-12.2-13.5-30.21-34.58-42.94-34-18.08.84-78.58,29.38-81.65,30.59S8.31,41.59,8.15,37.88s7.27-13.7,12.51-14.54,15.89.34,18.76-1.19,6.76-7.77,6.76-10.31-6.76-7.77-6.76-7.77S36.88-.16,33.5,0s-7.95,4.4-11,4.07c.84,3.21,7.61,6.59,10.44,6.45S38.74,7.8,38.74,7.8a9.42,9.42,0,0,1,3.89,3c.94,1.41-.68,4.9-3.38,6.42s-15.38-.84-20.3.34S-.65,32.82,0,38.56s15.71,18.94,21.29,20c-3.71,7.93.17,27.2-1.51,28.56s-8.12-2-9.51,1.37,7.82,20.09,6.46,22.29-1.12,7.2-1.12,7.2l14.3-.1c-.17-4.39-4-7.26-4-7.26l-2-8.81s10.58-5.57,14-11c1,2.71,5.75,7.61,7.78,8.3s-4.05,1.36-3.1,4.08,23.22,10.79,23.58,12.36c-2.56,4-.71,6.72-.71,6.72l12.69.33c-1.52-8.78-8-11.59-8-11.59L59.65,99.54S69.84,87.93,70.83,76.11c6.73,8.64,21.35,10.12,21.35,10.12s-11,26.48-11.76,28.23,1.6,8.11,1.6,8.11H95.87c-.84-3.31-8-8.12-8-8.12L107.2,86l4.91-.08s5.41,23.3,4.4,25.5-.86,8.45-.86,8.45l14.2-.34c-.34-4.56-4.73-7.43-4.73-7.43l.33-26.38s7.79,2.55,12-.18c-1.55,4.76-2.56,15.92-1.71,18.27a6.16,6.16,0,0,0,6.25,3.56c2.37-.34,16.4-15.55,19.11-20.35a18.83,18.83,0,0,0,1.64-7.3c-.9.07-1.82.17-2.7.32A14.61,14.61,0,0,1,155.48,80.27Z"/><path class="cls-1" d="M171.95,71.68c-4.39-3-10-5.19-16.06-4.22-3.07.48-2.54,10.31,0,10.82s7.44-1.7,11.84-.17,10.48,8.45,10.48,6.26S176.34,74.74,171.95,71.68Z"/></g></g></svg>