<svg xmlns="http://www.w3.org/2000/svg" viewBox="0 0 132.43 132.43"><defs><style>.cls-1{fill:#313142;}</style></defs><title>Asset 1</title><g id="Layer_2" data-name="Layer 2"><g id="Capa_1" data-name="Capa 1"><path class="cls-1" d="M124,86.39A59.12,59.12,0,0,0,97.29,22.48a2.28,2.28,0,0,0-2.4,3.89A54.57,54.57,0,0,1,119.7,84.81,16,16,0,1,0,124,86.39Z"/><path class="cls-1" d="M87.15,123.71a54.77,54.77,0,0,1-59.79-12,16,16,0,1,0-3.66,2.78,59.3,59.3,0,0,0,65.2,13.48,2.28,2.28,0,1,0-1.75-4.22Z"/><path class="cls-1" d="M9.13,71.27h.16a2.28,2.28,0,0,0,2.28-2.12A54.52,54.52,0,0,1,50.89,20.48a16,16,0,1,0-.66-4.56A59.07,59.07,0,0,0,7,68.83,2.28,2.28,0,0,0,9.13,71.27Z"/></g></g></svg>