<svg xmlns="http://www.w3.org/2000/svg" viewBox="0 0 82.94 115.51"><defs><style>.cls-1{fill:#313142;}</style></defs><title>Asset 5</title><g id="Layer_2" data-name="Layer 2"><g id="Capa_1" data-name="Capa 1"><path id="_Compound_Path_" data-name="&lt;Compound Path&gt;" class="cls-1" d="M82.94,41.47a41.47,41.47,0,1,0-47.43,41v7.75H28.16a6,6,0,1,0,0,11.93h7.35v7.35a6,6,0,1,0,11.93,0v-7.35h7.35a6,6,0,1,0,0-11.93H47.43V82.51A41.53,41.53,0,0,0,82.94,41.47Zm-71,0A29.54,29.54,0,1,1,41.47,71,29.58,29.58,0,0,1,11.93,41.47Z"/></g></g></svg>